<svg id="Layer_1" data-name="Layer 1" xmlns="http://www.w3.org/2000/svg" viewBox="0 0 203.33 100.16"><defs><style>.cls-1{fill:#939598;}</style></defs><title>CarbonCalc_Icons</title><path class="cls-1" d="M134.76,43.93c-1.06-6-3.65-10.1-7.7-12.14-6.29-3.17-14.32-.54-18.4,1.22a19.34,19.34,0,0,0,.24-4.07,15.75,15.75,0,0,0,3.67.46,11,11,0,0,0,6-1.67c5.33-3.37,6.42-10.59,6.47-10.9a1,1,0,0,0-.88-1.14c-5-.58-9.15.39-12.22,2.85a13.6,13.6,0,0,0-4,5.41,16.27,16.27,0,0,0-4.61-6.85,1,1,0,1,0-1.25,1.56,15.4,15.4,0,0,1,4.49,14.63c-3.81-1.73-12.41-4.86-19.07-1.51-4.05,2-6.65,6.12-7.7,12.14a36.83,36.83,0,0,0,7.78,30.19c4.23,5,9.35,8.16,13.37,8.16h0A15.62,15.62,0,0,0,107.27,81a15.62,15.62,0,0,0,6.33,1.32h0c4,0,9.15-3.13,13.37-8.16A36.83,36.83,0,0,0,134.76,43.93ZM113.18,20.1c2.42-1.93,5.65-2.77,9.63-2.51-0.49,2-1.9,6.28-5.35,8.46-2.27,1.43-5.09,1.73-8.4.87A12.4,12.4,0,0,1,113.18,20.1Zm12.26,52.74c-3.8,4.53-8.45,7.45-11.84,7.45h0A13.6,13.6,0,0,1,107.72,79a1,1,0,0,0-.89,0,13.6,13.6,0,0,1-5.89,1.32h0c-3.39,0-8-2.92-11.84-7.45a34.81,34.81,0,0,1-7.34-28.56c0.94-5.36,3.17-9,6.63-10.7,6.8-3.42,16.55,1.13,18.44,2.07l0.09,0L107,35.72a1,1,0,0,0,.25,0h0a1,1,0,0,0,.4-0.09h0c1.89-.94,11.64-5.49,18.44-2.07,3.46,1.74,5.69,5.34,6.63,10.7A34.81,34.81,0,0,1,125.45,72.84Z"/></svg>