<svg id="Layer_1" data-name="Layer 1" xmlns="http://www.w3.org/2000/svg" viewBox="0 0 203.33 100.16"><defs><style>.cls-1{fill:#4ba847;}</style></defs><title>CarbonCalc_Icons</title><path class="cls-1" d="M131.44,43.93c-1.06-6-3.65-10.1-7.7-12.14-6.29-3.17-14.32-.54-18.4,1.22a19.34,19.34,0,0,0,.24-4.07,15.75,15.75,0,0,0,3.67.46,11,11,0,0,0,6-1.67c5.33-3.37,6.42-10.59,6.47-10.9a1,1,0,0,0-.88-1.14c-5-.58-9.15.39-12.22,2.85a13.6,13.6,0,0,0-4,5.41A16.27,16.27,0,0,0,100,17.11a1,1,0,1,0-1.25,1.56,15.4,15.4,0,0,1,4.49,14.63c-3.81-1.73-12.41-4.86-19.07-1.51-4.05,2-6.65,6.12-7.7,12.14a36.83,36.83,0,0,0,7.78,30.19c4.23,5,9.35,8.16,13.37,8.16h0A15.62,15.62,0,0,0,104,81a15.62,15.62,0,0,0,6.33,1.32h0c4,0,9.15-3.13,13.37-8.16A36.83,36.83,0,0,0,131.44,43.93Z"/></svg>