<svg id="Layer_1" data-name="Layer 1" xmlns="http://www.w3.org/2000/svg" viewBox="0 0 203.33 100.16"><defs><style>.cls-1{fill:#fff;}.cls-2{fill:#231f20;}</style></defs><title>Carbon-Calculator-icons</title><rect class="cls-1" x="115.36" y="54.07" width="11.09" height="10.31"/><path class="cls-2" d="M78.59,24.29s-1.76,9.35-.72,13.08S83.11,52,87,55.68,99.76,63.74,108,62.89s21.08-6.48,27.6-8.42a62.05,62.05,0,0,1,16.64-2.35c1.3,0.05,3.81,2.27,3.43,5-1.15,2.9-4.75,9.15-13,14.38S119.26,84,111.07,85.65,90,87.34,80.38,81.39,63,66.24,61.19,57.28a17.4,17.4,0,0,1,4.12-14.94,13.06,13.06,0,0,0,4.26-3.28c1.25-1.83,2.15-6.57,2.1-8.95s-1-5.19-1-6.19-0.32-2.41.64-2.41C79.3,21.51,78.59,24.29,78.59,24.29Z"/></svg>