<svg id="Layer_1" data-name="Layer 1" xmlns="http://www.w3.org/2000/svg" viewBox="0 0 203.33 100.16"><defs><style>.cls-1{fill:#0f95d3;}</style></defs><title>Carbon-Calculator-icons</title><path class="cls-1" d="M81.77,67.58c-4,5.06-7.51,14.58-3.39,17.82s7.36,5,13.4-1.18c4.86-8.54,3.71-9.57,7.89-12.23S113,61.83,115.5,57.56s7.22-8.25,5.74-10.9-3.09-14.43-8-16.35-14.29-2.06-16.64,0-4.42,2.36-2.06,8.25,5.06,8.77,1.77,13.85C90.76,61,84.28,64.43,81.77,67.58Z"/><path class="cls-1" d="M110.59,12.52c-2-2.53-9.17,2.19-10.24,6.45s0.29,7.35,4,6.8,7.45-3.67,7.72-6S112.57,15,110.59,12.52Z"/><path class="cls-1" d="M118.88,17.87c-1.39-1.75-6.33,1.51-7.07,4.46S112,27.4,114.54,27s5.14-2.53,5.33-4.15S120.25,19.6,118.88,17.87Z"/><path class="cls-1" d="M122.7,24.44c-1-1.26-4.54,1.09-5.08,3.2s0.14,3.64,2,3.37,3.69-1.82,3.83-3A4.33,4.33,0,0,0,122.7,24.44Z"/><path class="cls-1" d="M124.69,29.68c-0.81-1-3.7.88-4.13,2.6s0.12,3,1.6,2.74,3-1.48,3.11-2.42A3.52,3.52,0,0,0,124.69,29.68Z"/><path class="cls-1" d="M126.24,35.07c-0.69-.87-3.14.75-3.51,2.21s0.1,2.52,1.36,2.33,2.55-1.26,2.64-2.06A3,3,0,0,0,126.24,35.07Z"/></svg>