<svg id="Layer_1" data-name="Layer 1" xmlns="http://www.w3.org/2000/svg" viewBox="0 0 203.33 100.16"><defs><style>.cls-1{fill:#939598;}</style></defs><title>CarbonCalc_Icons</title><path class="cls-1" d="M86.46,90.44A7.64,7.64,0,0,1,81,87.88c-7.47-7.57-.15-15.43,3.37-19.21h0c0.68-.73,1.43-1.47,2.31-2.33A78.54,78.54,0,0,0,97.23,54c3.19-4.63,2.33-6.79,0-12.57-2.67-6.67-.38-9.2,2.2-10.79s12.08-3.2,17.21.33c7.87,5.43,9.59,14.62,9.17,18-0.57,4.56-3.78,8.86-6.5,12.09-1.94,2.29-5.53,5.14-9,7.9a81.59,81.59,0,0,0-6.6,5.57,36.29,36.29,0,0,0-2.75,3.61C97.39,83.1,92.51,90,87,90.42ZM108.2,30.81c-3.28,0-6.44.72-7.71,1.5-2,1.23-3.61,2.8-1.4,8.32,2.39,6,3.59,9-.21,14.49A80.49,80.49,0,0,1,88.05,67.77c-0.86.84-1.6,1.57-2.25,2.26h0C81,75.21,76.74,80.75,82.4,86.48a5.54,5.54,0,0,0,4.45,1.95c4.57-.37,9.32-7.06,12.47-11.49a36.17,36.17,0,0,1,3-3.86,82.57,82.57,0,0,1,6.79-5.73c3.4-2.7,6.92-5.48,8.73-7.62,3.79-4.49,5.65-7.9,6-11,0.32-2.54-1.06-11.07-8.32-16.08A13.26,13.26,0,0,0,108.2,30.81ZM85.07,69.35h0Z"/><path class="cls-1" d="M102.85,28.12a4.4,4.4,0,0,1-3.48-1.52c-1.29-1.54-1.52-4-.63-6.65a13,13,0,0,1,7.6-7.47,4.49,4.49,0,0,1,4.21.55h0c1.67,1.31,3.34,3.82,1.77,8.36-1,2.75-4.6,6.08-8.52,6.67A6.48,6.48,0,0,1,102.85,28.12Zm5.2-13.92a4,4,0,0,0-1.14.19,10.93,10.93,0,0,0-6.28,6.19c-0.66,2-.56,3.76.26,4.74a2.75,2.75,0,0,0,2.6.76,9.74,9.74,0,0,0,6.92-5.34c1-2.79.61-4.8-1.11-6.13h0A2,2,0,0,0,108.06,14.2Z"/><path class="cls-1" d="M116.17,28.86a3.36,3.36,0,0,1-2.66-1.17c-1-1.16-1.15-3-.49-4.93a9.28,9.28,0,0,1,5.5-5.41,3.43,3.43,0,0,1,3.21.43c1.25,1,2.49,2.83,1.33,6.18a8.48,8.48,0,0,1-6.19,4.86A4.82,4.82,0,0,1,116.17,28.86Zm3.63-9.72a2.48,2.48,0,0,0-.71.12,7.4,7.4,0,0,0-4.18,4.13,3.31,3.31,0,0,0,.13,3,1.58,1.58,0,0,0,1.54.43,6.56,6.56,0,0,0,4.59-3.53c0.93-2.69-.28-3.63-0.67-3.94h0A1.1,1.1,0,0,0,119.81,19.13Z"/><path class="cls-1" d="M123.1,34.4a2.74,2.74,0,0,1-2.17-1,4,4,0,0,1-.41-3.9,7.15,7.15,0,0,1,4.24-4.17,2.82,2.82,0,0,1,2.61.36h0c1,0.77,2,2.24,1.07,4.86a6.57,6.57,0,0,1-4.78,3.76A3.9,3.9,0,0,1,123.1,34.4Zm2.69-7.19a1.59,1.59,0,0,0-.45.08,5.17,5.17,0,0,0-2.92,2.89,2.15,2.15,0,0,0,0,2,0.93,0.93,0,0,0,.9.23,4.63,4.63,0,0,0,3.19-2.44c0.56-1.63,0-2.28-.41-2.63A0.57,0.57,0,0,0,125.79,27.21Z"/><path class="cls-1" d="M126.7,40.36a2.35,2.35,0,0,1-1.86-.83,3.35,3.35,0,0,1-.36-3.26,5.83,5.83,0,0,1,3.46-3.4,2.41,2.41,0,0,1,2.24.32h0c0.68,0.53,1.7,1.76.91,4a5.3,5.3,0,0,1-3.92,3.09A3.21,3.21,0,0,1,126.7,40.36Zm2.11-5.62a1.06,1.06,0,0,0-.29,0,3.86,3.86,0,0,0-2.14,2.12,1.56,1.56,0,0,0,0,1.34,0.54,0.54,0,0,0,.51.1,3.42,3.42,0,0,0,2.32-1.76c0.44-1.27,0-1.65-.25-1.81h0A0.24,0.24,0,0,0,128.81,34.74Z"/><path class="cls-1" d="M128.88,46.1a2,2,0,0,1-1.57-.7,2.7,2.7,0,0,1-.31-2.63,4.48,4.48,0,0,1,2.7-2.65,2,2,0,0,1,1.88.28h0a2.68,2.68,0,0,1,.75,3.25,4.14,4.14,0,0,1-3.07,2.43Zm1.5-4.09a2.44,2.44,0,0,0-1.49,1.39,1.05,1.05,0,0,0-.06.71,0.39,0.39,0,0,1,.12,0,2.2,2.2,0,0,0,1.47-1.1A0.81,0.81,0,0,0,130.38,42Zm0,0h0Zm-0.07,0h0Z"/></svg>