<svg id="Layer_1" data-name="Layer 1" xmlns="http://www.w3.org/2000/svg" viewBox="0 0 203.33 100.16"><defs><style>.cls-1{fill:#4ba847;}</style></defs><title>CarbonCalc_Icons</title><path class="cls-1" d="M116.65,30.94c-5.12-3.53-14.58-1.95-17.21-.33s-4.87,4.12-2.2,10.79c2.31,5.78,3.18,7.95,0,12.57A78.54,78.54,0,0,1,86.65,66.35c-0.87.86-1.63,1.6-2.31,2.33C80.82,72.45,73.5,80.31,81,87.88a7.64,7.64,0,0,0,5.48,2.56l0.55,0c5.5-.45,10.38-7.31,13.94-12.33a36.29,36.29,0,0,1,2.75-3.61,81.59,81.59,0,0,1,6.6-5.57c3.48-2.76,7.08-5.61,9-7.9,2.73-3.23,5.93-7.53,6.5-12.09C126.24,45.56,124.52,36.37,116.65,30.94Z"/><path class="cls-1" d="M102.85,28.12A6.48,6.48,0,0,0,103.8,28c3.92-.59,7.57-3.92,8.52-6.67,1.57-4.55-.09-7.06-1.77-8.36h0a4.49,4.49,0,0,0-4.21-.55,13,13,0,0,0-7.6,7.47c-0.89,2.69-.67,5.12.63,6.65A4.4,4.4,0,0,0,102.85,28.12Z"/><path class="cls-1" d="M113.51,27.69a3.36,3.36,0,0,0,2.66,1.17,4.82,4.82,0,0,0,.71-0.05,8.48,8.48,0,0,0,6.19-4.86c1.16-3.34-.09-5.2-1.33-6.18a3.43,3.43,0,0,0-3.21-.43,9.28,9.28,0,0,0-5.5,5.41C112.36,24.73,112.54,26.53,113.51,27.69Z"/><path class="cls-1" d="M120.53,29.54a4,4,0,0,0,.41,3.9,2.74,2.74,0,0,0,2.17,1,3.9,3.9,0,0,0,.57,0,6.57,6.57,0,0,0,4.78-3.76c0.91-2.62-.08-4.09-1.07-4.86a2.82,2.82,0,0,0-2.61-.36A7.15,7.15,0,0,0,120.53,29.54Z"/><path class="cls-1" d="M131.09,37.24c0.79-2.28-.23-3.51-0.91-4a2.41,2.41,0,0,0-2.24-.32,5.83,5.83,0,0,0-3.46,3.4,3.35,3.35,0,0,0,.36,3.26,2.35,2.35,0,0,0,1.86.83,3.21,3.21,0,0,0,.48,0A5.3,5.3,0,0,0,131.09,37.24Z"/><path class="cls-1" d="M131.57,40.4h0a2,2,0,0,0-1.88-.28,4.48,4.48,0,0,0-2.7,2.65,2.7,2.7,0,0,0,.31,2.63,2,2,0,0,0,1.57.7l0.38,0a4.14,4.14,0,0,0,3.07-2.43A2.68,2.68,0,0,0,131.57,40.4Z"/></svg>