<svg id="Layer_1" data-name="Layer 1" xmlns="http://www.w3.org/2000/svg" viewBox="0 0 203.33 100.16"><defs><style>.cls-1{fill:#4ba847;}</style></defs><title>CarbonCalc_Icons</title><path class="cls-1" d="M105.07,37.66c-2.22,0-3.54,1.95-3.54,5s1.32,5,3.54,5,3.54-2,3.54-5S107.31,37.66,105.07,37.66Z"/><path class="cls-1" d="M134.24,38.79C131.61,28.71,122,28.27,118.46,28.46c-0.22-2.78-1.82-8.93-11.48-11.05-5.28-1.16-9.49-.72-12.53,1.31A9.5,9.5,0,0,0,91,22.87a12.11,12.11,0,0,0-13.36,1.92,10.72,10.72,0,0,0-3.1,12.83c-2.26,2-8.68,8.66-4.69,17.35a13.82,13.82,0,0,0,10.39,7.89,21.09,21.09,0,0,0,5.67.31c0.59,1.78,2.59,5,9.3,5.9a18.46,18.46,0,0,0,2.54.18,10.41,10.41,0,0,0,6.75-2.1V83.25L98.57,76A1.14,1.14,0,0,0,96.8,77.5l7.93,9.67a1.11,1.11,0,0,0,.13.15l0,0a1.1,1.1,0,0,0,.18.1l0.14,0.08a1.14,1.14,0,0,0,.41.08h0a1.14,1.14,0,0,0,.45-0.1h0a1.12,1.12,0,0,0,.27-0.15,1.08,1.08,0,0,0,.12-0.15h0l8-9.71A1.14,1.14,0,1,0,112.71,76l-5.94,7.24V66.54c4.26,3.33,9.15,3.37,14.58.08,4.31-2.61,4.72-7.7,4.71-9.62C128.52,55.48,137,49.36,134.24,38.79ZM92.16,50.68c-4.62,0-7.42-3.09-7.42-8s2.94-8,7.6-8a7.92,7.92,0,0,1,4.08,1l-0.54,3.45a5.31,5.31,0,0,0-3.34-1.25c-2.42,0-4,1.84-4,4.8s1.64,4.8,4.06,4.8a6.56,6.56,0,0,0,3.52-1.19l0.49,3.2A8.63,8.63,0,0,1,92.16,50.68Zm12.88,0c-4.44,0-7.35-3.23-7.35-8s2.91-8,7.39-8,7.37,3.23,7.37,8S109.55,50.7,105,50.7Zm8.51,0.38V49.5l3.1-3.1a2.32,2.32,0,0,0,.91-1.64,1,1,0,0,0-1.16-1,4.19,4.19,0,0,0-2.38.92l-0.27-1.89a5.14,5.14,0,0,1,3-.89c1.85,0,3,1,3,2.58,0,1.22-.61,2-1.7,3.06l-1.8,1.73h3.4l0.28,1.77h-6.35Z"/></svg>