<svg id="Layer_1" data-name="Layer 1" xmlns="http://www.w3.org/2000/svg" viewBox="0 0 203.33 100.16"><defs><style>.cls-1{fill:#231f20;stroke:#000;stroke-miterlimit:10;}</style></defs><title>Carbon-Calculator-icons</title><ellipse class="cls-1" cx="97.32" cy="79.09" rx="0.43" ry="0.39"/><path d="M93.13,58a11.43,11.43,0,0,0-5.3-7.18c-1.44-.84-2.61-1.77-2.27-3.58s1.87-2.36,3.53-2.66q12.42-2.31,24.83-4.7c2.5-.48,4.23.41,4.43,2.42,0.17,1.74-.81,2.91-2.74,3.28l-20,3.82,3.94,8.51h4.05c1.38-2.69,2.57-5.18,3.95-7.55a4,4,0,0,1,2.11-1.61,2.58,2.58,0,0,1,3.12,1.18,3,3,0,0,1-.19,3.51c-0.93,1.31-1.73,2.71-2.59,4.07L110.39,58h3.84A1.49,1.49,0,0,1,116,59.71c-0.07,4.59.48,4.08-4,4.09-7.48,0-15,0-22.44,0-1.61,0-2.24-.46-2.18-2.14,0.13-3.69-.49-3.79,3.73-3.73h2Z"/><path d="M115.95,66.55a13.43,13.43,0,0,1-4.24,10.07,3.59,3.59,0,0,0-1.26,3.13c0.08,1.08,0,2.17,0,3.26a1.76,1.76,0,0,1-1.85,2c-4.63,0-9.27,0-13.9,0a1.56,1.56,0,0,1-1.78-1.82,10,10,0,0,0-3-8.7c-1.95-2-2.58-4.9-2.48-7.92h28.5Z"/><path d="M116.38,30.3a3,3,0,0,1,3.23,2.59A3.13,3.13,0,0,1,117,36.22c-2.39.5-4.8,0.93-7.2,1.42C102.69,39.1,95.56,40.55,88.43,42c-2.52.53-4.19-.18-4.65-2.12s0.9-3.19,3.46-3.71c9.2-1.86,18.38-3.76,27.58-5.65C115.38,30.46,115.94,30.38,116.38,30.3Z"/><path d="M87.26,33.24c-2.12,0-3.38-1.11-3.54-2.66a3.14,3.14,0,0,1,2.7-3.23l13.37-2.74L114,21.74c2.07-.42,3.66.4,4,2.1,0.38,1.87-.74,3.38-2.8,3.79L92.29,32.19C90.45,32.56,88.62,33,87.26,33.24Z"/><path d="M86.92,24.23a2.93,2.93,0,0,1-.83-5.8c5.12-1.11,10.24-2.19,15.37-3.2a2.86,2.86,0,0,1,3.59,2.3,2.94,2.94,0,0,1-2.26,3.5c-5.11,1.12-10.24,2.14-15.36,3.2A2.59,2.59,0,0,1,86.92,24.23Z"/></svg>