<svg id="Layer_1" data-name="Layer 1" xmlns="http://www.w3.org/2000/svg" viewBox="0 0 203.33 100.16"><defs><style>.cls-1{fill:#939598;}</style></defs><title>CarbonCalc_Icons</title><path class="cls-1" d="M140.41,50a1,1,0,0,0-.32-0.73L130,39.89l-0.26-16.56a1,1,0,0,0-1-1L121,22.23a0.94,0.94,0,0,0-.72.29,1,1,0,0,0-.3.71l0,7.3-14-13a1,1,0,0,0-1.36,0L70.1,49.18a1,1,0,0,0-.32.74v32a1,1,0,0,0,1,1h27.3a1,1,0,0,0,1-1V61.24h12.56V81.89a1,1,0,0,0,1,1h26.84a1,1,0,0,0,1-1Zm-26.77,30.9V60.24a1,1,0,0,0-1-1H98.08a1,1,0,0,0-1,1V80.89H71.78V50.36l33.46-30.72,15,13.91a1,1,0,0,0,1.68-.73l0-8.57,5.83,0.09,0.25,16a1,1,0,0,0,.32.72l10.08,9.35,0.07,30.46H113.64Z"/></svg>