<svg id="Layer_1" data-name="Layer 1" xmlns="http://www.w3.org/2000/svg" viewBox="0 0 203.33 100.16"><defs><style>.cls-1{fill:#4ba847;}</style></defs><title>CarbonCalc_Icons</title><path class="cls-1" d="M129.69,70H79.31l3.92-5.76a0.86,0.86,0,0,0,.15-0.58L83,60.2,129.19,58a0.87,0.87,0,0,0,.82-0.82l1.37-24.6a0.87,0.87,0,0,0-.75-0.91l-51.55-7L78.34,18a0.87,0.87,0,0,0-.57-0.72L70.93,14.8a0.87,0.87,0,1,0-.58,1.63l6.33,2.26,4.94,44.81L77,70.35a0.87,0.87,0,0,0,.72,1.35H85a4.69,4.69,0,1,0,4.7,0h30.16a4.69,4.69,0,1,0,4.7,0h5.16A0.87,0.87,0,1,0,129.69,70Z"/></svg>