<svg id="Layer_1" data-name="Layer 1" xmlns="http://www.w3.org/2000/svg" viewBox="0 0 203.33 100.16"><title>Carbon-Calculator-icons</title><path d="M102.81,81.15c0.19-1.73.5-3.39,1.46-3.73l-0.94-.87,0.26-7.45s-1-1.21,0-1.91,0-1,0-1v-4a0.82,0.82,0,0,1,.14-1.23,2.36,2.36,0,0,1,.54-0.33c1.48-.69,10.66-4.33,13.44-4.68-1.91.17-14.2,3.64-14.2,3.64v-9.7l-1,7.8-1.27-.52C98.36,56,91.68,53.27,90.86,53c1.21,1,8.83,3.81,9.7,5s1.91-.35,1.56,3.81c0,0.32-5.19-1.37-2.32-.35,3.17,1.13,2.53,2.74,2.52,3.12-0.11,3-.2,7.28-0.2,7.28l-1-.87a3.55,3.55,0,0,1,1.21,2.43c-0.18,1.64-.78,7.59-1.37,13.33,0.39,0.46.76,0.93,1.12,1.4"/><path d="M111.42,79l0.4-.21Z"/><path d="M110.16,19.26c-0.46.64-.71,0-1-0.18-0.09.09-.37,0.18-0.7,1.55s0.83,0.56.51,2.65-1,1.92-1.9,2.25-0.48.5-1.08,1.12,0.47,5.47.47,5.47-0.72,2.1-.1,1.25,2.73-1.17,3.85-1.47a4.75,4.75,0,0,0,2.07-1.55c0.32-.29,2.6-1,3.68-1.81s1.17-1.58.55-2.3-0.19-2.59-.24-3.15-1.14,0-1.59.14-0.7-.13-0.57-0.42,1.64-.65,2.38-1.14a2.23,2.23,0,0,0,.8-1.87,5.71,5.71,0,0,0,1.42-1.63,29.46,29.46,0,0,1,1.59-2.92c0.25-.42,3.61-3.26,3.61-3.26a14.09,14.09,0,0,0-1.55.85c-4.44,3.5-7.52,2.51-7.52,2.51A10.16,10.16,0,0,0,110.16,19.26Z"/><path d="M109.59,57.91s2.76-5.08,3.62-5.08,0.69-.52,1.56,0,1.21,1.27,2.94-.23,0.35-1.85,1.56-2.71,1.47-.69,1.6-0.69c0,0.43-.22,1.17.56,1s6.11-3.12,6.58-2.94a7.41,7.41,0,0,1-1,.82s-0.09.3,0.39,0.22,3.64-1,4.37-.52-0.22,1.08-.22,1.08-4.5,1.65-4.07,2.17,2.25-.43,2.25-0.43l2.26-.48,0.95-.65s0.82-.3.43,0.39-1.3,1.6-.78,1.78a16.31,16.31,0,0,0,2.25.3s-1.47.74-1.17,1.3a7.25,7.25,0,0,0,1.6,1.47s-1.08.48-.78,0.87a4.2,4.2,0,0,0,1.69.65,45.82,45.82,0,0,0-4.85-.43,25.19,25.19,0,0,0-3.2,1.08A4.66,4.66,0,0,1,126,57a2,2,0,0,1-1.91.88c-0.87-.23-2.17-1.27-2.47-1.14a0.48,0.48,0,0,0,.09.87c0.43,0.26,1.58.78,1.2,1.3s-2,1.73-2.11,2.9-0.69,1.73-2,1.47-3.42-1.69-3.85-1.73a4,4,0,0,1-2.56-.52c-1-.74-2.69-2.34-3.72-2.17S109.59,57.91,109.59,57.91Z"/><path d="M103.51,52.47s0.33-3.22.77-2.78,0.36,1.57.7,1.83a3.44,3.44,0,0,0,2.51.78c0.43,0.61,1.07.87,2.1,0.17,0.85-1,.76-3.64,1-3.72-0.43-.61-2.76-3.12-2.29-4.68s2.38-3.38,3-4.16c0.61-1.39,1.13-3.46,1.39-3.9a2.69,2.69,0,0,0,0-2.17c-0.35-.35-2.74.17-3.1-0.35S108.32,31,108.32,31a1.68,1.68,0,0,0-1.52-1c-1,.17-1-0.17-1.47-1s-1-2.17-1.82-1.73a1.29,1.29,0,0,1-1.82-.43c-0.52-.61-0.52-1.3-2.77-1.39s-2.86-.43-3.38-0.87-1.65-1.3-1.65-1.3l0.43,2.51a9.05,9.05,0,0,1,.09,1.91,2.11,2.11,0,0,0,.35,1.91c-0.43.61-1.3,0.87-1.3,1.47s0.69,1,.52,1.56-0.87.17-1,1.13a1.3,1.3,0,0,0,.78,1.3s1.3,0.69.69,1.47a1.47,1.47,0,0,0,1.82,1.13c0.69,0,2.77-.35,2.86.09a6.09,6.09,0,0,0,.17,2.08,8.26,8.26,0,0,0,1,1.47c0.26,0.35,1.82.43,1.82,1a5.34,5.34,0,0,0,.76,1.82Z"/><path d="M99,56.27l-0.9-1a1.24,1.24,0,0,0-1.65-1c-0.17-1.21-.69-2.69-1.39-2.6a1.55,1.55,0,0,0-1,.61s0.07-2.25-1-2.43-1.29.17-1.81,0-0.43-.69-1.56-0.61c-0.43-.87-2.77-2.17-3.29-1.73a0.81,0.81,0,0,0-.35.88s-4,1-4.59.85S99,56.43,100,57.56,99,56.27,99,56.27Z"/><path d="M78,45.11s-1.47-1-2.08,0c-1,.35-3.64.09-3.64,0.78s0.52,1.13,0,1.65A3.27,3.27,0,0,0,71,49.88c-0.52,1-1.58,1.69-1.13,2.43-1,.26-1.3-0.13-1.47.59a10.23,10.23,0,0,0-1.3,1.66s8.56-3,13.17-2.89c3.28,0.12,9.42,4.82,9.42,4.82S78.22,47.1,78,45.11Z"/><path d="M102,63a4.54,4.54,0,0,0-4-2.17c-2.6-1.47-8-5.28-8.4-6.24s-4.07-8.14-6.93-9.27l-1.47-.61a4.18,4.18,0,0,1,.16,1.56c-0.68-.09-6-0.36-6.57,1-0.09,1.57,1,1.57.52,2s-5.11,4.42-5.8,4.55c2.07-.73,5-1.33,7.19-1.86a10.78,10.78,0,0,1,7.28.93c2.6,1.49,8.65,5.56,9,5.74a3.4,3.4,0,0,1,1,1.39c0.69,0.43,1,.87,1.82.78a7.33,7.33,0,0,1,2.77.78c0.61,0.26,3.41.73,3.35,1.45S102,63,102,63Z"/><path d="M103.33,51.43a25.74,25.74,0,0,0-3.53-2.6A3.14,3.14,0,0,1,98,47.45c-0.26-.61-1-1.21-1.47-0.87s-0.43-2.17-1-1.91l-0.61.26s-0.71-1.82-1.82-1.3c-1.47-.17-1.12-0.26-1.64-0.87a7.44,7.44,0,0,0-1.66,0s-0.59-1.79-1.37-.85-4.33,1.55-5,.85S100.22,49.36,103.33,51.43Z"/><path d="M88.7,87.16L94,87.92a93.45,93.45,0,0,0,10.29.23,46.81,46.81,0,0,0,9.57-1.2A26.09,26.09,0,0,0,88.7,87.16Z"/></svg>