<svg id="Layer_1" data-name="Layer 1" xmlns="http://www.w3.org/2000/svg" viewBox="0 0 203.33 100.16"><defs><style>.cls-1{fill:#939598;}</style></defs><title>CarbonCalc_Icons</title><path class="cls-1" d="M84.5,92.49a1,1,0,0,1-1-1.27A50.11,50.11,0,0,0,85,80.89c-4.42-1.66-6.11-8.09-7.61-13.8-0.25-1-.49-1.87-0.74-2.73a30.19,30.19,0,0,1-.86-9c0-3.16,0-6.14-1.13-9.25-0.34-1.06-.9-2.41-1.54-4-2.4-5.83-5.69-13.81-2-16.94a3.4,3.4,0,0,1,3-1c1.66,0.39,2.75,2.28,4.07,5.41A30.63,30.63,0,0,1,79.46,34c0.82,3.45,1.91,8,3.92,9.16,0.13-1.67-.7-5.91-1.34-9.13-1.79-9.1-3.82-19.42,1.27-21.29a3.66,3.66,0,0,1,3.4.23c2.38,1.55,2.67,6.09,2.86,9.09,0,0.63.07,1.17,0.12,1.57A80.9,80.9,0,0,0,91.94,36.8a139.21,139.21,0,0,0,1-15c0-1.76.1-3.52,0.17-5.27,0.26-4.06,1.16-6.75,2.66-8a3.49,3.49,0,0,1,2.63-.82A3.67,3.67,0,0,1,101,9c2.32,2.72,1.74,9.09,1.11,15.83-0.44,4.72-1,10.44.12,12.64,2-3.09,3-8.69,3.92-13.28,0.36-1.87.69-3.63,1.05-5,0-.2.1-0.49,0.16-0.8,0.4-2.07,1.08-5.53,3.37-6.56a4.23,4.23,0,0,1,4,.54c4.68,2.77.79,18.34,0,21.43a57.71,57.71,0,0,0-1.15,5.93,68.13,68.13,0,0,1-1.35,6.91l-0.09,1c-0.29,2.85-.58,5.79.89,7.88,1.41-.33,3.69-2,5.9-3.67,4.41-3.28,9.4-7,12.83-4.3a4.67,4.67,0,0,1,2.18,3.95A5.91,5.91,0,0,1,131,55.93c-8.75,5.65-11.79,11.91-14.23,16.93-1.88,3.86-3.38,7-6.87,7.92-0.06.6,0,2.78,0.75,10.58a1,1,0,0,1-1,1.1c-8.66,0-25.2,0-25.2,0h0Zm-11-66.36a2.17,2.17,0,0,0-1.15.61c-2.56,2.19.66,10,2.58,14.66,0.66,1.61,1.23,3,1.58,4.08,1.29,3.41,1.27,6.72,1.24,9.93a28.2,28.2,0,0,0,.78,8.4c0.25,0.87.5,1.81,0.75,2.78,1.35,5.15,3,11.56,6.77,12.56a1,1,0,0,1,.71.71L87,80.52a1.06,1.06,0,0,1,0,.28,52.54,52.54,0,0,1-1.24,9.68l22.82,0c-0.89-9-.74-10.22-0.4-10.75a1,1,0,0,1,.78-0.75c2.93-.57,4.17-3.12,6-7,2.42-5,5.73-11.78,14.94-17.73a3.9,3.9,0,0,0,1.93-2.86,2.83,2.83,0,0,0-1.4-2.3c-2.25-1.77-6.59,1.46-10.43,4.31-3,2.21-5.54,4.12-7.54,4.12a1,1,0,0,1-.75-0.34c-2.4-2.75-2-6.49-1.69-9.79l0.1-1a1.07,1.07,0,0,1,0-.16,66.45,66.45,0,0,0,1.33-6.79,58.86,58.86,0,0,1,1.2-6.14c2.25-8.39,3.22-17.86,1-19.2a2.43,2.43,0,0,0-2.15-.43c-1.35.61-1.92,3.54-2.23,5.11-0.07.34-.13,0.65-0.18,0.9-0.35,1.36-.68,3.09-1,4.92-1,5.33-2.29,12-5.06,15.15a1,1,0,0,1-1.29.18c-2.88-1.86-2.3-8.06-1.64-15.25,0.53-5.75,1.13-12.27-.64-14.35a1.71,1.71,0,0,0-1.27-.62A1.46,1.46,0,0,0,97,10c-1,.88-1.74,3.28-2,6.61-0.07,1.73-.12,3.48-0.17,5.22-0.18,6.39-.36,13-1.7,19.42a1,1,0,0,1-1.92.14A73.77,73.77,0,0,1,87.7,23.89c0-.39-0.09-1-0.13-1.66-0.15-2.29-.42-6.54-2-7.54a1.65,1.65,0,0,0-1.61,0c-3.49,1.28-1.39,12,0,19,1.29,6.57,1.91,10.06.75,11.4a1,1,0,0,1-.87.34C80,45,78.62,39.17,77.51,34.5a30.38,30.38,0,0,0-1.15-4.11c-0.47-1.1-1.7-4-2.69-4.25H73.55Z"/></svg>