<svg id="Layer_1" data-name="Layer 1" xmlns="http://www.w3.org/2000/svg" viewBox="0 0 203.33 100.16"><defs><style>.cls-1{fill:#4ba847;}</style></defs><title>CarbonCalc_Icons</title><path class="cls-1" d="M131.7,47.5c-3.43-2.7-8.42,1-12.83,4.3-2.21,1.65-4.49,3.34-5.9,3.67-1.48-2.08-1.18-5-.89-7.88l0.09-1a68.13,68.13,0,0,0,1.35-6.91,57.71,57.71,0,0,1,1.15-5.93c0.83-3.09,4.73-18.66,0-21.43a4.23,4.23,0,0,0-4-.54c-2.29,1-3,4.49-3.37,6.56-0.06.32-.12,0.6-0.16,0.8-0.36,1.4-.7,3.16-1.05,5-0.88,4.59-1.95,10.19-3.92,13.28-1.09-2.21-.56-7.92-0.12-12.64C102.72,18.1,103.31,11.73,101,9a3.67,3.67,0,0,0-2.63-1.32,3.49,3.49,0,0,0-2.63.82c-1.5,1.28-2.4,4-2.66,8-0.07,1.76-.12,3.52-0.17,5.27a139.21,139.21,0,0,1-1,15,80.9,80.9,0,0,1-2.25-13.13c0-.4-0.08-0.94-0.12-1.57-0.19-3-.48-7.54-2.86-9.09a3.66,3.66,0,0,0-3.4-.23C78.22,14.65,80.25,25,82,34.07c0.63,3.22,1.47,7.46,1.34,9.13-2-1.12-3.1-5.71-3.92-9.16a30.63,30.63,0,0,0-1.25-4.43c-1.33-3.13-2.42-5-4.07-5.41a3.4,3.4,0,0,0-3,1c-3.66,3.13-.37,11.11,2,16.94,0.64,1.57,1.2,2.92,1.54,4,1.18,3.11,1.16,6.09,1.13,9.25a30.19,30.19,0,0,0,.86,9c0.25,0.86.49,1.78,0.74,2.73,1.5,5.71,3.19,12.14,7.61,13.8a50.11,50.11,0,0,1-1.47,10.33,1,1,0,0,0,1,1.27h0s16.54,0,25.2,0a1,1,0,0,0,1-1.1c-0.79-7.8-.81-10-0.75-10.58,3.49-1,5-4.05,6.87-7.92,2.44-5,5.48-11.28,14.23-16.93a5.91,5.91,0,0,0,2.84-4.48A4.67,4.67,0,0,0,131.7,47.5Z"/></svg>