<svg id="Layer_1" data-name="Layer 1" xmlns="http://www.w3.org/2000/svg" viewBox="0 0 203.33 100.16"><defs><style>.cls-1{fill:#4ba847;}</style></defs><title>CarbonCalc_Icons</title><path class="cls-1" d="M89.59,88.64a1,1,0,0,1-1-1.18l5.67-30.71c-1-.08-1.88,0-2.82,0H83.94c-3.48,0-7,0-10.43,0a1.68,1.68,0,0,0-1.66.88c-1.72,2.47-3.57,5-5.65,7.73a9.18,9.18,0,0,1-1.49,1.45c-0.21.17-.42,0.35-0.62,0.53a1,1,0,0,1-1.12.16l-0.56-.27a1,1,0,0,1-.55-1c0.22-1.66.49-3.35,0.75-5A71.1,71.1,0,0,0,63.83,50,70.23,70.23,0,0,0,62.63,39c-0.26-1.62-.54-3.3-0.75-5a1,1,0,0,1,.44-1l0.48-.31A1,1,0,0,1,64,32.8c0.2,0.17.41,0.33,0.62,0.48a7.54,7.54,0,0,1,1.54,1.41c1,1.32,2,2.67,3,4s1.93,2.65,2.93,4a1.66,1.66,0,0,0,.84.58c6.42,0.05,12.94,0,19.25,0h2.11L88.61,12.7a1,1,0,0,1,.21-0.82,1.06,1.06,0,0,1,.79-0.36c3,0,4.35,1.93,5.35,3.33,6.46,9.13,12.77,18.06,19,27a3,3,0,0,0,2.89,1.47c5.4,0,11.78.07,18.17,0.4a32.4,32.4,0,0,1,7.26,1.51A4.92,4.92,0,0,1,146,50.14c0,1.47-.69,3.47-3.64,4.7-4,1.65-8.18,1.75-12.24,1.85h-0.3c-4.26.11-8.77,0.1-13.41,0a2.26,2.26,0,0,0-2.25,1.18c-5.13,7.37-10.39,14.83-15.47,22.05L94.8,85.48a6.39,6.39,0,0,1-5.16,3.15h0Zm1.87-33.91a31.1,31.1,0,0,1,3.6.08l0.49,0.05A1,1,0,0,1,96.44,56l-5.6,30.34a5.08,5.08,0,0,0,2.33-2.05l3.92-5.57c5.08-7.22,10.34-14.68,15.47-22a4.26,4.26,0,0,1,3.94-2c4.61,0.12,9.08.12,13.31,0h0.3c4.05-.1,7.88-0.19,11.52-1.7,1.59-.66,2.38-1.61,2.41-2.89a2.94,2.94,0,0,0-2.34-2.95,30.83,30.83,0,0,0-6.8-1.44c-6.35-.33-12.7-0.38-18.07-0.39A4.93,4.93,0,0,1,112.28,43c-6.18-8.93-12.49-17.86-18.95-27a5.3,5.3,0,0,0-2.5-2.31l5.58,30.2A1,1,0,0,1,95.72,45l-0.17.06a2,2,0,0,1-.71.16H92.15c-6.32,0-12.85,0-19.28,0a3.43,3.43,0,0,1-2.42-1.37c-1-1.32-2-2.65-3-4s-1.94-2.67-2.95-4a3.34,3.34,0,0,0-.46-0.47c0.16,1.08.34,2.16,0.51,3.22A71.73,71.73,0,0,1,65.83,50,72.55,72.55,0,0,1,64.6,61.5c-0.17,1-.34,2.1-0.5,3.15a4.52,4.52,0,0,0,.51-0.55c2.06-2.71,3.89-5.22,5.6-7.67a3.63,3.63,0,0,1,3.26-1.74h0.05c4.72,0,9.45,0,14.17,0h3.76Z"/></svg>