<svg id="Layer_1" data-name="Layer 1" xmlns="http://www.w3.org/2000/svg" viewBox="0 0 203.33 100.16"><title>Carbon-Calculator-icons</title><path d="M88.62,12.52c2.45,0,3.54,1.47,4.55,2.91,6.35,9,12.7,18,19,27a4,4,0,0,0,3.71,1.9c6,0,12.09.08,18.12,0.39a31.36,31.36,0,0,1,7,1.47,3.91,3.91,0,0,1,3.06,3.93c0,1.91-1.31,3.08-3,3.79-3.91,1.62-8.06,1.68-12.18,1.78-4.45.11-8.91,0.1-13.36,0a3.24,3.24,0,0,0-3.1,1.61Q102.75,71.14,93,84.91a5.38,5.38,0,0,1-4.39,2.73l5.87-31.78c-0.55,0-1-.13-1.51-0.13-6.81,0-13.62,0-20.43,0A2.66,2.66,0,0,0,70.06,57c-1.82,2.61-3.7,5.17-5.62,7.7a15.51,15.51,0,0,1-2,1.85l-0.56-.27c0.71-5.41,2-10.82,2-16.24s-1.25-10.78-2-16.17l0.47-.31a12.59,12.59,0,0,1,2,1.73c2,2.62,3.89,5.34,5.9,8a2.48,2.48,0,0,0,1.63,1c7.32,0.06,14.64,0,22,0a2.44,2.44,0,0,0,.59-0.17Z"/></svg>