<svg width="616" height="308" class="d3-comparative-pie-chart"><g transform="translate(30,20)" class="d3-object-container"><g class="d3-value-arc travel" transform="translate(278, 134)"><path d="M8.205133554287266e-15,-134A134,134 0 0,1 127.38372039986375,41.585908395625296L0,0Z" style="fill: rgb(13, 122, 62);"></path></g><g class="d3-value-arc home" transform="translate(278, 134)"><path d="M127.38372039986375,41.585908395625296A134,134 0 0,1 -72.51310801653658,112.68473350805822L0,0Z" style="fill: rgb(69, 129, 60);"></path></g><g class="d3-value-arc dining" transform="translate(278, 134)"><path d="M-72.51310801653658,112.68473350805822A134,134 0 0,1 -133.44071816003296,12.230075099305488L0,0Z" style="fill: rgb(94, 137, 60);"></path></g><g class="d3-value-arc goods" transform="translate(278, 134)"><path d="M-133.44071816003296,12.230075099305488A134,134 0 0,1 -94.29809102202435,-95.20435929936197L0,0Z" style="fill: rgb(11, 113, 61);"></path></g><g class="d3-value-arc services" transform="translate(278, 134)"><path d="M-94.29809102202435,-95.20435929936197A134,134 0 0,1 9.440050757695498e-14,-134L0,0Z" style="fill: rgb(74, 170, 72);"></path></g></g></svg>
